<?xml version="1.0" encoding="UTF-8" standalone="no"?>
<svg
   xmlns:dc="http://purl.org/dc/elements/1.1/"
   xmlns:cc="http://creativecommons.org/ns#"
   xmlns:rdf="http://www.w3.org/1999/02/22-rdf-syntax-ns#"
   xmlns:svg="http://www.w3.org/2000/svg"
   xmlns="http://www.w3.org/2000/svg"
   xmlns:sodipodi="http://sodipodi.sourceforge.net/DTD/sodipodi-0.dtd"
   xmlns:inkscape="http://www.inkscape.org/namespaces/inkscape"
   width="563.85187"
   height="63.307423"
   viewBox="0 0 451.08149 50.645938"
   version="1.1"
   id="svg2"
   inkscape:version="0.48.5 r10040"
   sodipodi:docname="Random.org logo.svg">
  <metadata
     id="metadata30">
    <rdf:RDF>
      <cc:Work
         rdf:about="">
        <dc:format>image/svg+xml</dc:format>
        <dc:type
           rdf:resource="http://purl.org/dc/dcmitype/StillImage" />
      </cc:Work>
    </rdf:RDF>
  </metadata>
  <defs
     id="defs28" />
  <sodipodi:namedview
     pagecolor="#ffffff"
     bordercolor="#666666"
     borderopacity="1"
     objecttolerance="10"
     gridtolerance="10"
     guidetolerance="10"
     inkscape:pageopacity="0"
     inkscape:pageshadow="2"
     inkscape:window-width="1366"
     inkscape:window-height="706"
     id="namedview26"
     showgrid="false"
     fit-margin-top="0"
     fit-margin-left="0"
     fit-margin-right="0"
     fit-margin-bottom="0"
     inkscape:zoom="2.0311579"
     inkscape:cx="281.575"
     inkscape:cy="30.73648"
     inkscape:window-x="-8"
     inkscape:window-y="-8"
     inkscape:window-maximized="1"
     inkscape:current-layer="svg2" />
  <g
     id="#ffffffff"
     transform="translate(-12.24,-8.9432448)" />
  <g
     id="#000000ff"
     transform="translate(-12.24,-8.9432448)">
    <path
       d="m 12.25,9 c 7.3,0.03 14.59,-0.06 21.89,0.02 3.7,0.01 7.32,2.08 9.14,5.31 1.4,3.01 1.03,6.44 0.89,9.66 -0.11,3.36 -2.68,6.1 -5.64,7.37 -3.34,1.28 -6.98,0.84 -10.46,0.89 5.13,7.42 10.45,14.71 15.45,22.22 2.13,2.38 -0.71,5.92 -3.55,4.92 -1.7,-1.16 -2.75,-3 -3.95,-4.62 -4.89,-7.07 -9.87,-14.08 -14.79,-21.12 -0.48,-1 -1.46,-1.38 -2.46,-1.63 -0.1,8.25 0.1,16.51 -0.09,24.76 0.05,2.85 -3.65,3.38 -5.59,2.06 C 12.25,57.76 12.25,56.36 12.24,55.06 12.27,39.71 12.25,24.36 12.25,9 m 6.5,6.5 c 0,3.42 0,6.83 0,10.24 5.07,-0.03 10.14,0.08 15.21,-0.01 1.57,-0.03 3.93,-0.62 3.78,-2.63 -0.11,-2.51 1.06,-6.72 -2.4,-7.41 C 29.84,15.2 24.28,15.64 18.75,15.5 z"
       id="path6"
       inkscape:connector-curvature="0"
       style="fill:#000000" />
    <path
       d="m 72.19,11.19 c 0.75,-3.17 5.52,-2.71 5.94,0.43 4.14,13.75 7.84,27.64 11.9,41.42 0.32,1.49 1.05,2.98 0.82,4.52 -0.99,2.3 -4.57,2.7 -5.74,0.33 -1.53,-2.96 -2.1,-6.3 -3.24,-9.42 -4.58,0.04 -9.16,0.04 -13.74,0.01 -1.07,3.14 -1.72,6.46 -3.25,9.42 -1.19,2.38 -4.81,1.95 -5.76,-0.4 -0.14,-1.6 0.56,-3.12 0.93,-4.65 4.13,-13.86 7.9,-27.84 12.14,-41.66 m -2.23,30.8 C 73.34,42 76.72,42 80.09,42 78.42,36.07 76.78,30.13 75.05,24.21 c -1.7,5.93 -3.38,11.85 -5.09,17.78 z"
       id="path8"
       inkscape:connector-curvature="0"
       style="fill:#000000" />
    <path
       d="m 105.5,9 c 2.85,0 5.69,0 8.54,0 5.65,13.17 11.31,26.33 16.86,39.55 0.27,-12.21 -0.04,-24.41 0.15,-36.62 -0.36,-3.92 6.75,-3.96 6.39,-0.01 0.14,15.86 0.01,31.72 0.06,47.58 -2.85,0 -5.7,0 -8.55,0 -5.64,-13.01 -11.31,-26 -16.94,-39.01 -0.1,12.19 0.15,24.39 -0.12,36.57 -0.18,2.74 -3.84,3.03 -5.66,1.7 -0.89,-1.41 -0.7,-3.13 -0.75,-4.71 0.05,-15.02 0.01,-30.03 0.02,-45.05 z"
       id="path10"
       inkscape:connector-curvature="0"
       style="fill:#000000" />
    <path
       d="m 152.35,13.59 c -0.9,-2.31 0.99,-4.84 3.48,-4.57 4.67,0.09 9.42,-0.42 14.05,0.39 4.85,1.11 6.53,6.29 8.56,10.2 2.64,5.71 7.03,11.64 5.1,18.27 -1.6,4.91 -4.49,9.28 -6.57,13.99 -1.46,3.46 -4,7.04 -8.07,7.41 -4.61,0.43 -9.27,0.25 -13.9,0.14 -2.54,0.19 -3.47,-3.1 -2.39,-4.94 1.11,-2.14 3.97,-1.23 5.92,-1.58 -0.06,-12.43 -0.02,-24.87 -0.03,-37.3 -2.1,-0.2 -4.98,0.27 -6.15,-2.01 m 12.67,1.8 c -0.04,12.57 -0.01,25.15 -0.02,37.73 1.75,-0.23 4.25,0.14 5.11,-1.85 2.41,-4.78 4.92,-9.53 6.97,-14.48 1.45,-3.67 -1.05,-7.19 -2.51,-10.41 -1.98,-3.46 -3.02,-7.49 -5.62,-10.55 -1.29,-0.27 -2.61,-0.42 -3.93,-0.44 z"
       id="path12"
       inkscape:connector-curvature="0"
       style="fill:#000000" />
    <path
       d="m 211.45,9.64 c 3.71,-1.72 8.37,0.2 10.28,3.69 2.06,3.69 3.75,7.56 5.73,11.29 2.27,4.01 3.98,8.77 2.55,13.38 -1.51,4.48 -3.93,8.59 -5.93,12.87 -1.57,2.98 -2.94,6.64 -6.35,7.95 -3.88,1.92 -8.83,-0.18 -10.69,-3.95 -2.88,-5.52 -5.91,-11.02 -8.05,-16.87 -2.13,-6.82 2.53,-12.86 5.23,-18.71 1.91,-3.51 3.14,-8.07 7.23,-9.65 m 1.77,6.34 c -2.9,4.95 -5.36,10.19 -7.7,15.43 -1.91,4.63 1.57,8.85 3.37,12.87 1.71,2.88 2.53,6.44 5.04,8.77 0.43,-0.1 1.29,-0.29 1.72,-0.39 2.81,-4.35 4.73,-9.23 7.17,-13.79 1.54,-2.7 1.59,-6.04 0.12,-8.78 -2.31,-4.77 -4.48,-9.63 -7.18,-14.19 -0.45,-0.11 -1.34,-0.33 -1.79,-0.44 l -0.75,0.52 z"
       id="path14"
       inkscape:connector-curvature="0"
       style="fill:#000000" />
    <path
       d="m 245,9 c 2.7,0 5.39,0 8.09,0 2.63,3.82 5.28,7.63 7.91,11.46 2.63,-3.83 5.28,-7.64 7.91,-11.46 2.69,0 5.39,0 8.09,0 0,15.35 -0.01,30.7 0.01,46.04 -0.01,1.53 0.01,3.93 -1.96,4.26 -1.73,0.66 -4.47,-0.05 -4.45,-2.28 -0.24,-13.07 -0.04,-26.17 -0.09,-39.25 -1.91,2.98 -4.12,5.78 -5.82,8.88 -0.7,2.05 -0.6,5.58 -3.65,5.39 -3.1,0.25 -3.01,-3.39 -3.76,-5.44 -1.7,-3.08 -3.9,-5.87 -5.79,-8.83 0.03,12.42 -0.01,24.85 0.02,37.27 -0.13,1.39 0.17,3.72 -1.63,4.14 -2.18,1.16 -5.31,-0.37 -4.86,-3.06 -0.06,-15.7 0,-31.41 -0.02,-47.12 z"
       id="path16"
       inkscape:connector-curvature="0"
       style="fill:#000000" />
    <path
       d="m 351.35,9.61 c 3.72,-1.71 8.36,0.35 10.21,3.85 2.42,4.62 4.68,9.32 7.03,13.98 2.1,4.07 2.25,9.09 0.2,13.21 -2.4,4.95 -4.65,9.99 -7.41,14.75 -1.95,3.44 -6.6,5.18 -10.24,3.47 -4.12,-1.63 -5.4,-6.24 -7.35,-9.78 -2.02,-4.56 -5.1,-8.87 -5.53,-13.96 -0.46,-5.73 3.32,-10.44 5.51,-15.41 2.04,-3.65 3.21,-8.56 7.58,-10.11 m 1.72,6.15 c -2.89,4.96 -5.35,10.19 -7.72,15.42 -1.92,4.1 0.8,8.1 2.57,11.67 1.83,3.26 3.02,6.91 5.29,9.9 2.29,1.26 3.18,-1.77 4.08,-3.26 2.06,-4.88 5.4,-9.32 6.5,-14.55 -0.25,-5.44 -3.95,-9.93 -5.96,-14.84 -1.15,-1.76 -1.9,-5.75 -4.76,-4.34 z"
       id="path18"
       inkscape:connector-curvature="0"
       style="fill:#000000" />
    <path
       d="m 384.75,9 c 7.46,0.04 14.92,-0.08 22.38,0.04 4.64,0.21 9.29,3.83 9.57,8.67 0.07,3.88 0.75,8.65 -2.5,11.52 -3.53,3.67 -9.01,3.03 -13.63,3.02 5.17,7.54 10.64,14.89 15.63,22.54 2.26,2.79 -2.52,6.59 -4.74,3.78 -5.16,-6.54 -9.65,-13.61 -14.53,-20.37 -1.76,-2.19 -2.88,-5.16 -5.58,-6.37 -0.3,8.37 0.12,16.75 -0.2,25.11 0.02,3.46 -6.3,3.48 -6.3,0.01 C 384.6,40.98 384.82,24.98 384.75,9 m 6.5,16.75 c 5.69,-0.21 11.44,0.43 17.09,-0.31 2.9,-0.69 1.73,-4.35 1.91,-6.5 0.33,-1.92 -1.42,-3.46 -3.27,-3.36 -5.24,-0.23 -10.48,0 -15.72,-0.09 -0.01,3.42 -0.01,6.84 -0.01,10.26 z"
       id="path20"
       inkscape:connector-curvature="0"
       style="fill:#000000" />
    <path
       d="m 438.81,17.83 c 2.82,-3.35 5.27,-8.08 10.1,-8.64 4.02,-0.33 8.09,-0.29 12.12,-0.08 2.87,0.74 3.02,5.23 0.23,6.21 -3.43,0.48 -6.91,-0.01 -10.35,0.19 -2.91,-0.32 -4.03,2.9 -5.71,4.66 -2.68,4.04 -7.27,7.37 -7.4,12.62 -0.07,5.7 -0.16,11.41 0.04,17.11 -0.19,2.27 2.13,3.3 4.07,3.08 4.32,-0.1 8.73,0.41 13,-0.31 3.35,-1.86 1.28,-6.58 1.84,-9.67 -2.55,-0.02 -5.13,0.19 -7.65,-0.22 -2.48,-1.03 -2.47,-4.81 -0.17,-6.05 4.75,-0.54 9.55,-0.09 14.32,-0.23 -0.28,5.42 0.62,10.97 -0.54,16.31 -1.26,5.1 -6.91,7.2 -11.69,6.71 -5.59,-0.51 -12.33,1.56 -16.85,-2.74 -3.72,-3.18 -2.85,-8.46 -2.92,-12.79 0.13,-4.71 -0.27,-9.44 0.2,-14.13 0.74,-4.84 4.67,-8.2 7.36,-12.03 z"
       id="path22"
       inkscape:connector-curvature="0"
       style="fill:#000000" />
    <path
       d="m 303.45,39.56 c 2.97,-0.53 6.09,-0.52 9.07,0.03 2.75,1.84 1.54,5.73 1.68,8.52 0.02,3.36 -3.82,3.26 -6.23,3.19 -2.47,0.08 -6.55,0.21 -6.42,-3.31 0.15,-2.73 -1.15,-6.94 1.9,-8.43 z"
       id="path24"
       inkscape:connector-curvature="0"
       style="fill:#000000" />
  </g>
</svg>
